<?xml version="1.0" encoding="UTF-8"?>
<svg version="1.1" viewBox="0 0 1800 1764" width="1280" height="1280" xmlns="http://www.w3.org/2000/svg">
<path transform="translate(0)" d="m0 0h1800v1764h-1800z" fill="#010101"/>
<path transform="translate(0)" d="m0 0h1800v1764h-1800zm900 11-5 1h-38l-4 1-11-1-5 1h-8l-8 1-1-1h-5l-1 1h-11l-9 1-12 1-8 2h-8l-9 2h-7l-8 2-10 1-41 8-17 4-16 4-26 7-32 10-25 9-32 12-19 8-15 7-29 14-28 15-24 14-15 9-39 26-10 8-11 8-16 12-13 11-8 6-8 7-13 11-6 7-11 9-17 16-10 10-7 8-7 7-7 8-9 10-7 8-11 13-8 10-7 9-13 18-8 11-17 26-11 17-7 11-12 20-12 21-6 11-6 14-8 16-11 25-16 38-11 33-9 30-10 38-7 31-3 17-1 8-3 17-2 18-2 13-3 35-1 15v81l3 48 4 39 8 50 7 33 9 38 9 28 8 26 12 31 15 36 16 34 15 29 12 21 10 17 7 11 10 15 10 14 9 13 12 16 7 9 11 14 10 11 7 8 13 15 14 15 37 37 11 9 13 12 11 9 16 12 13 10 18 13 12 9 32 21 17 10 15 9 61 32 17 8 28 12 25 10 28 11 39 12 41 11 39 9 37 6 17 2 15 2 53 4 27 1h35l28-1 50-4 27-3 25-4 15-2 22-4 61-15 18-6 13-4 24-8 16-6 20-8 36-16 19-9 16-8 26-14 25-14 14-9 44-29 17-13 19-14 14-12 11-10 16-14 11-9 16-16 8-7 5-6 8-7 5-6 13-13 9-11 3-3v-2h2l7-9 10-11 10-13 9-11 16-23 7-10 12-17 11-17 6-9 5-10 8-13 11-19 19-38 9-20 5-12 4-8 8-20 18-48 7-23 5-18 4-13 6-25 9-35 5-33 3-14v-10l4-21-1-5 3-17v-3h-2l2-10v-6h-2v-2l3 1 1-5h-2l2-16h-2l2-11v-5l-1-1 1-15-1-3 1-9-1-1v-9l1-6-2-1v-12h-2l2-4v-6l-2-3 1-11-2-5 1-5-1-2-1-18-2-9 1-3-4-14-3-22-8-36-6-24-7-26 1-13 4-16 1-10 4-20 1-9-1-1 1-8 1-3v-8l-1-5 1-2v-10l-1-3 1-2v-9l-1-4-1-19-3-19-6-27-10-32-9-22-12-24-6-11-10-18-11-15-7-11-11-13-7-8-9-10-7-8-16-16-8-7-13-11-11-9-15-11-12-8-28-18-8-4-17-9-18-8-20-8-24-7-45-12-17-3v2l-6-2-12-2-3-1h-7l-3 1-4-2h-2l-12-2h-2l-1 1-2-1-6 1-9-2-3 2-11-2-12-4-7-5-16-8-45-21-28-12-20-7-11-5-22-7-17-6-19-6-53-14-11-1-6-2-13-2-15-3-10-1-24-4-26-3h-13l-9-1-28-1z" fill="#FEFDFD"/>
<path transform="translate(881,114)" d="m0 0 19 1 7 1 8-1 15 2h8l5 1 17 1 17 3 14 1 21 4 15 2 21 5 44 12 28 10 3 3-2 4-13 8-10 4-23 13-16 9-11 6-9 6-12 9-11 8-11 9-5 5-10 8-6 7-8 7-10 10-8 10-9 10-14 19-7 11-5 8-12 22-4 8-7 15-11 33-9 40-2 12-1 14-1 5v9l-1 7 1 27 1 11v17l-7-1-24-7-25-5-16-3-16-1h-22l-24 5-21 7-14 7-12 8-9 8h-2l-2 4h-2l-2 4-11 12-8 13-7 14-8 25-9 32-2 2-14 2-17 7-9 6-5 4-7 8-8 9-7 11-9 27-5 25v13l-1 21 2 18 1 14 2 9 2 15 2 8 3 14 6 31-1 8-7 11-5 18-3 13 1 6 1 19 1 9 2 19 4 14 6 17 11 24 9 16 3 4v2l3 1 5 7 8 7 7 9 4 9v2h-3l3 10 4 20 1 9 3 9 6 13 8 20 3 5-1 4-12 8-10 8-7 7-5 3-8 10-7 9-4 6-6 7-6 9-7 10-8 5-40 13-47 18-33 12-17 8-16 7-11 7-15 6-11 5-17 6-14 9-2 2-11 3-6 3-4-1-4-6-10-9-9-11-11-12-10-14-11-14-20-28-6-10-11-16-13-21-13-24-11-21-11-23-15-36-10-25-12-39-5-19-6-25-6-32-2-16-2-10-1-15-2-14-2-25-1-4v-44l-1-16 1-2v-32l2-8 1-18 1-4v-16l3-9v-18l4-13 2-13 2-6v-13l6-21 12-45 4-12 3-6 6-20 7-20 9-18 3-11 7-14 5-12 6-11 2-7 5-5 3-9 10-16 6-10 8-14 7-10 12-18 7-8 6-9 6-8 3-5h2l2-4 4-5 3-6 16-17 9-11 6-5 5-7 8-7 4-6 7-5 7-9 9-7 6-7 9-7 10-8 8-7 13-11 9-7 11-9 6-5 9-5 14-10 6-5 14-9 26-15 13-8 16-9 42-20 19-8 14-5 7-3 16-5 6-3 16-5 13-4 8-2 11-4 22-5 4-2 24-4 16-3 35-5 15-2 63-4 20-1z" fill="#FEAA04"/>
<path transform="translate(1291,216)" d="m0 0h9l6 1 1-1 16 1 29 1 13 2 14 1 56 15 24 8 23 10 21 11 11 6 30 20 28 24 7 8 17 17 11 14 12 16 10 16 8 14 8 17 8 21 5 19 3 9 2 12v9l1 4 1 13v29l-2 14-1 13-3 10-8 29-16 36-8 13-5 8-6 9-3 1-2 5-7 9-7 8-4 5-5 4-7 8-8 7-10 9-12 8-10 7-30 18-9 4-16 8-6 2-5 1-8 5-7 1-21 7-21 5-16 3-26 2h-6l-2 1-2-2h-12v2h-14l-5 1-6-2-7 1-16 12-17 14-16 12-11 8-10 7-21 14-14 8-9 6-1-3 8-19 9-32 10-39-24-8-28-8-28-11-13-6-16-8-19-10-24-16-18-14-13-12-16-16-9-11-8-10-8-12-8-13-10-18-11-28-5-16-4-17-2-11-1-3 1-4-1-3v-9l-1-10-1-9 1-13 1-12 3-11 3-15 8-28 7-20 11-22 9-16 10-15 5-7 5-4 6-8h2l2-4h2l2-4 13-12 5-5 11-10 30-20 16-9 30-15 14-6 31-10 18-5 36-7 11-2h7l6-1z" fill="#FEFDFD"/>
<path transform="translate(1662,749)" d="m0 0 3 1 4 10 3 16v11l3 11 1 3-1 7 2 6-2 5 2 9-2 7 2 5 1 3h-2l1 10 1 5-2 1v9l3 4-1 2h-3l1 9 3 3-3 6-2 8 1 6v8l-2 4v7l1 2v6l-3 9v7l1 3-3 14-4 17v9l-10 42-12 44-12 40-6 12-9 27-6 12-6 16-3 4-5 13-5 8-3 9-5 6-3 10-5 5-5 10-7 10-8 15-26 39-14 19-8 10-9 13h-2l-2 4-8 10-9 12-9 10-8 8-8 7-29 29-8 7-6 5-10 8-12 11-12 7h-5l-3-6-7-2-6-7-17-11-11-7-33-22-16-9-28-16-22-12-12-6-8-5-19-10-11-6-26-13-8-5-28-13-19-9-11-7-6-7-6-4-6-9-10-17-7-7-7-10-7-8-7-10-5-6-2-4 1-6 7-11 4-11 15-55 9-15 9-10 13-18 5-10 4-9 5-14 8-29 4-19-2-10 2-4v-7l-1-1-2-20-3-14-6-12-12-12-2-3 1-5 6-12 3-13 2-4-1-12 2-4 1-10 3-8v-19l3-8v-13l4-2 8 1 13 6 15 5 11 6 1 2v7l-4 16-6 20-6 25-5 18-6 22 12-2 6 2 4-2h24l24-5 10-2 27-9 18-10 9-2 19-11 13-8 8-7 14-8 9-7 5-5 5-1 6 1 43-2 10-1 9-1h11l26-6h8l13-4 20-5 15-5 11-4 10-5 10-3 16-9 14-7 7-4 10-4 4-5 13-8 12-7 7-4 8-7 4-2 7-8 8-5 8-8 9-6 8-7z" fill="#FEAA04"/>
<path transform="translate(725,759)" d="m0 0 15 3 16 5 25 10 23 8 14 5 13 2 24 4h13l7 1 28-2 26-5 20-7 21-8 11 14 10 18 10 23 7 32 5 27 1 12 2 8v11l4 22 2 16 5 11 3 10 9 6 7 1 1 3 1 18-2 13-1 13-3 10-3 11-5 12-8 14-14 13-7 6-6 11-3 18-8 30-6 17-6 13-4 8-7 13-7 10-8 12-12 13-7 8-6 5h-2l-2 4-10 8-15 10-15 8-13 4-24 5h-22l-17-2-14-5-15-8-10-6-4-3v-2l-5-2-12-11-10-10-9-11-12-16-13-21-6-10-6-12-5-11-6-18-5-27-2-16v-5l-3-6v-2l-4-2-8-7-17-17-9-14-8-17-6-19-1-8-2-11 1-4-1-10 2-13 1-1h6l5-4 7-14 5-12 7-17 8-31 1-15 2-12v-11l2-11 1-14 4-21 5-14 13-16 7-6 10-6 9-3 13-2z" fill="#FEFDFD"/>
<path transform="translate(661,1255)" d="m0 0 5 5 9 11 8 9 6 9 10 10 5 6 7 6 18 18 13 9 15 9 16 8 16 7 13 4h10l7 3h38l10-2 8-1h14l-2 10-4 14-4 11-8 17-6 11-4 5-4 6-10 13-8 10-8 9-8 7-10 9 9-1 14-2 14-1 21-5 13-4 24-10 22-13 17-12 10-9 7-6 7-8 6-7 8-13h2l-2 10-2 17-4 16-5 33-3 15-8 52-7 44-7 43-4 17-2 3-8-1-4-1v2l-5 1-10-1h-3l-8 1-7-2-2 1h-13l-4-1-9 1-9-2-4 2-9-2-9-1-1 2h-2v-2l-13-1-4-1-1 1h-10l-5-2-10 1-5-1-9-2h-17l-6-2-23-2-7-2-15-2-5-28-4-27-2-10-3-24-6-39-2-12-4-34-3-21-7-50-4-31-1-15-3-10 1-3-2-10-1-4 1-5-1-1-1-11-1-5-1-6-1-4 1-1-1-10z" fill="#FDFDFD"/>
<path transform="translate(1147,446)" d="m0 0 11 1 13 5 9 6 5 5 6 7 5 11 3 11v19l-4 12-6 9-7 7-11 7-11 4-9 2h-11l-16-4-11-6-9-9-7-11-4-12v-17l5-17 6-9 9-9 16-9 8-2z" fill="#010101"/>
<path transform="translate(1318,451)" d="m0 0h8l18 5 8 4 12 11 8 14 3 9v23l-3 10-6 11-9 9-12 7-17 3h-12l-14-4-11-7-10-9-6-10-2-9-3-9v-12l5-17 8-13 14-10 14-5z" fill="#010101"/>
<path transform="translate(1499,458)" d="m0 0 16 1 14 6 10 8 6 7 6 12 2 7 1 9v10l-4 16-11 14-8 7-16 6-10 2-12-1-12-4-16-11-8-9-5-10-3-16 1-14 3-9 6-12 5-6 10-7 10-4z" fill="#010101"/>
</svg>
